<svg height="512pt" viewBox="0 0 512 512.00089" width="512pt" xmlns="http://www.w3.org/2000/svg"><path d="m270.769531 283.007812c-.246093-5.21875-3.292969-10.039062-7.898437-12.5-.171875-.09375-.335938-.1875-.511719-.273437l-119.910156-58.3125c-4.121094-2.007813-8.933594-2.011719-13.0625-.023437l-120.910157 58.316406c-.195312.09375-.382812.199218-.570312.300781-4.613281 2.46875-7.652344 7.308594-7.8828125 12.535156-.0078125.21875-.0234375.441407-.0234375.664063v152.523437c0 5.664063 3.191406 10.839844 8.246094 13.386719l120.671875 60.773438c2.121093 1.070312 4.429687 1.601562 6.742187 1.601562.035156 0 .070313-.003906.109375-.003906.042969 0 .082031.003906.125.003906 3.066407 0 5.917969-.925781 8.292969-2.503906l118.382812-59.882813c5.042969-2.550781 8.222657-7.722656 8.222657-13.375v-152.523437c0-.238282-.015625-.472656-.023438-.707032zm-134.898437-40.953124 86.203125 41.921874-86.429688 43.722657-86.757812-43.695313zm-105.894532 65.988281 90.929688 45.796875v118.960937l-90.929688-45.796875zm120.90625 164.46875v-118.929688l89.933594-45.488281v118.929688zm0 0" fill="#1de8f1"/><path d="m511.691406 283.089844c-.210937-5.226563-3.238281-10.066406-7.839844-12.550782-.199218-.109374-.398437-.21875-.601562-.320312l-120.671875-58.316406c-4.125-1.992188-8.9375-1.988282-13.0625.011718l-120.25 58.3125c-.171875.082032-.335937.179688-.5.265626-4.609375 2.441406-7.664063 7.265624-7.921875 12.46875-.011719.25-.027344.5-.027344.753906v152.523437c0 5.644531 3.167969 10.808594 8.203125 13.363281l119.667969 60.773438c2.132812 1.082031 4.460938 1.625 6.789062 1.625.078126-.007812.15625-.007812.238282 0 3.03125 0 5.648437-1.078125 8.210937-2.457031l119.515625-59.90625c5.070313-2.539063 8.273438-7.726563 8.273438-13.398438v-152.523437c0-.210938-.015625-.417969-.023438-.625zm-135.625-41.039063 86.722656 41.910157-87.269531 43.738281-86.003906-43.675781zm-105.273437 66.085938 89.929687 45.671875v118.902344l-89.929687-45.671876zm210.945312 118.847656-91.035156 45.628906v-118.992187l91.035156-45.628906zm0 0" fill="#ff0b69"/><path d="m383.148438 58.949219-120.90625-57.496094c-4.089844-1.945313-8.835938-1.9375-12.917969.019531l-119.90625 57.496094c-.125.058594-.242188.128906-.363281.191406-.128907.066406-.261719.132813-.390626.203125-.292968.160157-.582031.332031-.863281.515625-.078125.050782-.160156.09375-.234375.148438-.339844.222656-.664062.464844-.980468.71875-.125.097656-.242188.199218-.367188.304687-.210938.179688-.414062.359375-.613281.550781-.121094.109376-.238281.222657-.351563.335938-.285156.289062-.5625.585938-.824218.894531-.0625.074219-.121094.15625-.183594.234375-.21875.269532-.425782.546875-.621094.828125-.078125.109375-.15625.222657-.230469.335938-.21875.332031-.429687.675781-.621093 1.023437-.019532.03125-.039063.058594-.054688.09375-.003906.003906-.007812.011719-.011719.019532-.210937.386718-.394531.785156-.570312 1.1875-.054688.125-.101563.246093-.152344.371093-.117187.296875-.226563.597657-.328125.90625-.039062.125-.085938.25-.125.375-.113281.386719-.214844.777344-.296875 1.175781-.035156.152344-.058594.304688-.082031.460938-.050782.265625-.09375.53125-.125.804688-.023438.175781-.039063.351562-.058594.527343-.023438.277344-.035156.558594-.046875.839844-.003906.144531-.011719.285156-.011719.429687 0 .015626-.003906.027344-.003906.039063v152.523437c0 5.734376 3.273438 10.964844 8.429688 13.476563l119.90625 58.375c.082031.039063.167968.066406.25.105469 3.960937 1.84375 8.628906 1.847656 12.59375.011718.078124-.035156.160156-.0625.234374-.097656l120.90625-58.375c5.183594-2.5 8.472657-7.746094 8.472657-13.496094v-152.523437c0-5.785156-3.328125-11.050781-8.550781-13.535156zm-127.316407-27.351563 86.5 41.136719-86.519531 43.722656-86.027344-43.601562zm-104.949219 184.035156v-118.75l89.933594 45.582032v116.949218zm119.910157 43.867188v-117.023438l90.929687-45.957031v119.078125zm0 0" fill="#7986e8"/></svg>